<svg width="17" height="24" viewBox="0 0 17 24" fill="none" xmlns="http://www.w3.org/2000/svg">
<g id="Ant">
<g id="Legs">
<path id="BL" d="M6.15811 14.0278L1.61782 15.0825C0.322252 15.3838 -0.150034 16.0267 0.0406799 17.2018L0.864394 22.415C0.935108 22.9173 1.16611 23.2185 1.65811 23.2185C2.13039 23.2185 2.48182 22.877 2.39139 22.3048L1.65811 17.4933C1.55782 16.8907 1.76868 16.619 2.46168 16.4287C2.61847 16.3838 2.77846 16.342 2.93986 16.2999L2.98815 16.2873C3.10026 16.258 3.21297 16.2284 3.32568 16.1973C3.98008 15.0798 4.6277 14.6251 6.15811 14.0278Z" fill="black"/>
<path id="BR" d="M14.2842 16.4287C14.9772 16.6195 15.1885 16.8907 15.0878 17.4933L14.3545 22.3049C14.2645 22.8775 14.6159 23.2186 15.0874 23.2186C15.5802 23.2186 15.8009 22.9173 15.8811 22.415L16.7048 17.2019C16.8959 16.0267 16.4134 15.3839 15.1277 15.0826L10.5977 14.0283C12.3883 14.7388 13.0666 15.2017 13.4202 16.1977C13.5461 16.2324 13.672 16.2651 13.797 16.2977C13.9615 16.3405 14.1245 16.383 14.2842 16.4287Z" fill="black"/>
<path id="FR" d="M11.4414 12.8524L14.525 12.4105C15.7807 12.2395 16.3434 11.5362 16.3434 10.3011V6.82539C16.3434 6.33339 16.0618 6.05225 15.5797 6.05225C15.0975 6.05225 14.8168 6.34367 14.8168 6.82539V9.98996C14.8168 10.7031 14.4345 10.9341 13.7818 11.0245L11.4817 11.3361C11.559 11.9278 11.6005 12.2784 11.4414 12.8524Z" fill="black"/>
<path id="FL" d="M5.26406 11.3357L2.96392 11.0241C2.30092 10.9341 1.92934 10.7027 1.92934 9.98953V6.82539C1.92934 6.34325 1.6482 6.05225 1.16606 6.05225C0.683915 6.05225 0.402344 6.33339 0.402344 6.82539V10.3011C0.402344 11.5367 0.965058 12.2395 2.22077 12.4105L5.30434 12.852C5.17826 12.2586 5.16585 11.9266 5.26406 11.3357Z" fill="black"/>
</g>
<path id="Body" d="M8.36769 23.8312C11.2104 23.8312 13.6914 20.7777 13.6914 17.4931C13.6914 16.981 13.6014 16.549 13.4201 16.1975C13.0665 15.2015 12.3882 14.7385 10.5975 14.0281L10.5877 13.9274C11.0197 13.7165 11.3107 13.3047 11.4414 12.8525C11.6005 12.2785 11.559 11.9279 11.4817 11.3362C11.3711 11.0247 11.1701 10.7435 10.8988 10.5627V10.4624C12.6165 10.1611 13.571 9.11667 13.571 7.58967C13.571 6.30395 13.0888 5.12881 12.3054 4.22453L12.3954 4.15424C13.37 3.45138 13.5508 2.41638 12.9183 1.30167L12.3255 0.327098C12.142 -0.000894457 11.9312 -0.000497922 11.6388 5.19835e-05L11.6021 9.77795e-05C11.1907 9.77795e-05 10.8791 0.135955 10.8791 0.527669C10.8791 0.708526 10.9091 0.808812 11.0197 1.00981L11.5417 1.80353C11.8631 2.32553 11.8631 2.77767 11.4517 3.13938C11.3991 3.18846 11.3418 3.23225 11.2807 3.2701C10.4208 2.68785 9.40618 2.37648 8.36769 2.3761C7.3134 2.3761 6.31869 2.70738 5.49497 3.25981C5.43342 3.22273 5.37621 3.17889 5.3244 3.1291C4.9224 2.77767 4.91254 2.32553 5.24383 1.80353L5.76626 1.00981C5.87683 0.808812 5.90683 0.708526 5.90683 0.527669C5.90683 0.135955 5.59569 9.77795e-05 5.18426 9.77795e-05L5.14653 4.80339e-05C4.85467 -0.000532692 4.64376 -0.000952363 4.46083 0.326669L3.86812 1.30124C3.23554 2.41596 3.4164 3.45053 4.39054 4.15381L4.46083 4.20396C3.66754 5.10824 3.16526 6.29324 3.16526 7.58924C3.16526 9.11581 4.12954 10.1607 5.84683 10.462V10.5622C5.57597 10.7431 5.37497 11.0242 5.2644 11.3358C5.1662 11.9267 5.17861 12.2587 5.30469 12.8521C5.4354 13.3047 5.7264 13.7165 6.1584 13.9274V14.0277C4.62799 14.625 3.98038 15.0796 3.32597 16.1971C3.14512 16.5485 3.05469 16.981 3.05469 17.4931C3.05469 20.7777 5.53526 23.8312 8.36769 23.8312Z" fill="black"/>
</g>
</svg>
