<svg width="1040" height="860" viewBox="0 0 1040 860" fill="none" xmlns="http://www.w3.org/2000/svg">
<g clip-path="url(#clip0_16_1085)">
<path d="M939.5 -47C869 87.5 912 186 881 227.5C850 269 646 302 615 398.5C584 495 508.5 612.5 380.5 635C252.5 657.5 195 724.5 140 792C85 859.5 -23.5 868 -117 887" stroke="#A9DA4B" stroke-width="3"/>
<path d="M1149.5 268C1079 402.5 1072.5 472.2 1072.5 524C1072.5 605 908 617.5 877 714C846 810.5 718.5 927.5 590.5 950C462.5 972.5 316 1019.5 350 1107C381.536 1188.16 186.5 1183 93 1202" stroke="#A9DA4B" stroke-width="3"/>
<path d="M1032.5 -6C962 128.5 955.5 198.2 955.5 250C955.5 331 791 343.5 760 440C729 536.5 601.5 653.5 473.5 676C345.5 698.5 199 745.5 233 833C264.536 914.159 69.5 909 -24 928" stroke="#A9DA4B" stroke-width="3"/>
</g>
<defs>
<clipPath id="clip0_16_1085">
<rect width="1040" height="860" fill="white"/>
</clipPath>
</defs>
</svg>
