<svg width="128" height="128" viewBox="0 0 128 128" fill="none" xmlns="http://www.w3.org/2000/svg">
<path d="M51.4642 23.9681C50.0162 26.678 48.6185 29.4065 47.271 32.1531C46.7853 33.0727 46.3688 34.0216 46.0219 35.0001C44.6962 38.0774 43.804 41.2803 43.3454 44.6085C43.3221 44.74 43.3518 44.8587 43.4346 44.9644C43.8632 43.6246 44.3985 42.3198 45.0405 41.0498C46.115 37.2666 51.2713 33.3951 53.5 33.5C56.5918 33.6455 56.4623 36.8023 54.9436 37.847C52.3912 39.6028 51.0954 42.7566 49.6798 46.3879C48.902 47.7594 48.2775 49.1829 47.8062 50.6583C47.1476 53.6535 46.9692 56.6784 47.2709 59.733C47.4787 61.1156 47.729 62.4938 48.1631 63.8255C48.5307 64.8548 48.947 65.8632 49.4121 66.8504C50.7663 69.3868 52.6694 71.4034 55.122 72.9002C60.2154 76.2863 67.2805 77.2557 73.2331 76.5478L72.787 76.9927C72.2563 77.4621 71.721 77.9366 71.1811 78.4161C70.1751 79.3325 69.1045 80.1629 67.9693 80.9072C65.7821 82.1172 63.5218 83.1255 61.1888 83.9321C58.8722 84.6133 56.5526 85.2065 54.2299 85.7115C49.5098 86.5115 44.8111 86.4225 40.1336 85.4446C39.2479 85.2006 38.3259 85.1414 37.5463 84.7328C34.0573 83.8307 29.7837 81.2665 26.9295 79.2169C21.7371 75.682 18.6659 71.6007 17.3832 65.6938C16.9372 64.7152 16.3764 62.2241 16.2235 61.1565C16.0705 60.0889 15.9558 58.3985 15.9558 58.3985C15.6821 53.9987 16.0688 50.5882 16.5804 46.2099C16.941 44.3886 17.5061 42.6093 18.2755 40.8719C18.8229 39.8394 19.6259 39.513 20.6843 39.8933C21.1459 40.4116 21.5326 40.9751 21.8442 41.5836C23.2092 45.5057 24.0717 49.5389 24.4314 53.6832L24.7883 49.4128C24.8454 48.0171 24.9644 46.6528 25.1452 45.3203C25.3689 43.0815 25.6365 40.887 26.1265 38.7367C26.1265 37.3132 28.5354 29.2172 30.1413 25.3916C30.8422 23.7889 31.794 22.3357 32.9963 21.0322C33.9609 20.6187 34.5854 20.9448 34.8698 22.0108C35.1384 23.5434 35.198 25.0855 35.0483 26.6371C34.6139 30.8373 33.9298 34.989 32.9963 39.0926C33.2609 38.5707 33.4989 38.0369 33.71 37.4911C35.304 32.3558 37.802 27.7295 41.2042 23.6122C42.1198 22.7884 43.0119 21.9284 43.8807 21.0322C45.3118 19.8454 46.9177 18.9557 48.6984 18.3632C50.8479 17.889 52.0375 18.7194 52.2671 20.8542C52.1469 21.9265 51.8792 22.9644 51.4642 23.9681Z" fill="url(#paint0_linear_16_1069)"/>
<path d="M76.8912 35.267C79.8585 33.168 82.2977 30.588 84.2069 27.5268C80.7813 24.1534 74.5935 22.6492 70.2891 25.3916C70.3457 26.1393 70.2861 26.851 70.1107 27.5268C70.0486 28.2487 69.9297 28.9604 69.7538 29.662C71.076 31.8241 70.8976 33.8406 69.2185 35.7118C69.6084 36.1143 70.0843 36.3812 70.646 36.5125C72.8917 36.9127 74.973 36.4974 76.8912 35.267Z" fill="#D9D9D9"/>
<path d="M68.5048 20.4094C67.6865 19.0833 66.5563 18.1343 65.1145 17.5624C64.9555 17.671 64.7771 17.7302 64.5792 17.7404C60.8987 17.5982 57.8059 18.8438 55.3007 21.477C53.4544 23.5587 52.4432 25.9903 52.2673 28.7723C52.2864 29.0523 52.3087 29.3129 52.3355 29.5582C52.5047 31.1086 52.8516 32.0488 53.6948 33.3986C55.0984 35.4192 56.3393 36.6153 58.6909 37.6691C58.6916 36.4404 58.7214 35.1949 58.7801 33.9324C58.8246 33.4561 59.003 33.041 59.3154 32.6869C59.4744 32.4298 60.0057 32.1522 60.2968 32.0641C60.6835 32.0344 61.07 32.0049 61.4566 31.9752C62.9749 32.2008 64.4916 32.4381 66.0067 32.6869C66.9488 32.77 67.7222 32.4736 68.3263 31.7972C68.9814 31.2019 69.4572 30.4901 69.7538 29.662C69.9297 28.9604 70.0486 28.2487 70.1107 27.5268C70.2861 26.851 70.3457 26.1393 70.2891 25.3916C70.1278 25.2654 70.0684 25.0875 70.1107 24.8578C69.9255 23.2441 69.3902 21.7613 68.5048 20.4094Z" fill="url(#paint1_linear_16_1069)"/>
<path d="M70.1107 24.8578C70.0684 25.0875 70.1278 25.2654 70.2891 25.3916C74.3096 22.9803 80.8563 24.4975 84.2069 27.5268C85.8093 24.5425 85.6023 21.6955 83.5824 18.9859C81.5411 16.8258 79.0734 15.3726 76.1774 14.6265C72.7033 13.8312 69.4915 14.3947 66.542 16.3169C66.0661 16.732 65.5904 17.1473 65.1145 17.5624C66.5563 18.1343 67.6865 19.0833 68.5048 20.4094C69.3902 21.7613 69.9255 23.2441 70.1107 24.8578Z" fill="white"/>
<path fill-rule="evenodd" clip-rule="evenodd" d="M66.8989 20.5873C67.1972 21.1434 67.1376 21.6475 66.7204 22.0998C64.4415 22.2631 62.1813 22.5596 59.9399 22.9895C58.5594 23.3793 57.4294 24.1206 56.5497 25.2136C56.1388 25.6546 55.7523 26.1291 55.3899 26.6371C54.2793 27.9949 53.863 27.817 54.1408 26.1033C54.7354 24.2969 55.7762 22.8142 57.2634 21.6549C59.4853 19.7994 62.043 18.9987 64.9361 19.2528C65.8149 19.3905 66.4692 19.8354 66.8989 20.5873Z" fill="#D0CEC4"/>
<path fill-rule="evenodd" clip-rule="evenodd" d="M69.7538 29.662C71.076 31.8241 70.8976 33.8406 69.2185 35.7118C68.5599 36.075 67.9056 36.4308 67.2557 36.7794C64.861 36.981 62.809 36.21 61.0998 34.4662C60.5727 33.8301 60.186 33.1184 59.9399 32.331C60.0145 32.2026 60.1334 32.1136 60.2968 32.0641C60.6835 32.0344 61.07 32.0049 61.4566 31.9752C62.9749 32.2008 64.4916 32.4381 66.0067 32.6869C66.9488 32.77 67.7222 32.4736 68.3263 31.7972C68.9814 31.2019 69.4572 30.4901 69.7538 29.662Z" fill="#333332"/>
<path fill-rule="evenodd" clip-rule="evenodd" d="M71.895 13.6479C75.7545 13.5175 79.2643 14.5553 82.4226 16.7617C85.6558 19.3692 86.7264 22.661 85.6344 26.6371C85.365 26.9362 85.1865 27.2921 85.0991 27.7047C83.3433 30.2876 81.261 32.6008 78.8539 34.6442C78.6202 34.7589 78.4417 34.9369 78.3186 35.178C78.6362 36.3993 78.7558 37.6449 78.6755 38.9146C78.4435 40.4886 77.9082 41.9715 77.0696 43.363C76.3487 44.2598 75.5154 45.0308 74.5715 45.6761C73.1904 41.8658 70.7525 38.9002 67.2557 36.7794C67.9056 36.4308 68.5599 36.075 69.2185 35.7118C69.6084 36.1143 70.0843 36.3812 70.646 36.5125C72.8917 36.9127 74.973 36.4974 76.8912 35.267C79.8585 33.168 82.2977 30.588 84.2069 27.5268C85.8093 24.5425 85.6023 21.6955 83.5824 18.9859C81.5411 16.8258 79.0734 15.3726 76.1774 14.6265C72.7033 13.8312 69.4915 14.3947 66.542 16.3169C68.0896 14.9521 69.8739 14.0625 71.895 13.6479Z" fill="#191919"/>
<path d="M79.3 24.5909C79.3 25.7701 78.3414 26.7261 77.1588 26.7261C75.9763 26.7261 75.0176 25.7701 75.0176 24.5909C75.0176 23.4116 75.9763 22.4557 77.1588 22.4557C78.3414 22.4557 79.3 23.4116 79.3 24.5909Z" fill="black"/>
<path d="M22.1393 107.354C22.1374 107.422 22.1485 107.514 22.1725 107.63C22.2435 108.013 22.3012 108.388 22.3454 108.756C22.4102 109.118 22.4307 109.482 22.4069 109.848C22.4037 110.208 22.3355 110.576 22.2024 110.953C22.0692 111.33 21.8474 111.711 21.5369 112.096C21.0918 112.668 20.6071 113.072 20.0828 113.309C19.579 113.54 19.0549 113.647 18.5104 113.632C17.9658 113.617 17.4102 113.51 16.8436 113.311C16.2841 113.098 15.7225 112.842 15.1586 112.541C14.6011 112.26 14.0512 111.95 13.5089 111.608C12.9801 111.275 12.4776 110.972 12.0015 110.701C11.921 110.658 11.8404 110.615 11.7599 110.572C11.6928 110.536 11.6328 110.487 11.5801 110.424C12.7427 108.065 13.9549 105.758 15.2167 103.504C16.4857 101.237 17.7252 98.9274 18.9353 96.5767L18.9662 96.5673C19.5822 96.7067 20.2138 96.8975 20.861 97.1396C21.5082 97.3817 22.12 97.6738 22.6962 98.0159C23.2725 98.3579 23.7896 98.7459 24.2476 99.1798C24.7189 99.6208 25.0728 100.12 25.3094 100.677C25.553 101.22 25.6556 101.817 25.617 102.468C25.5856 103.106 25.3687 103.8 24.9663 104.549C24.6645 105.111 24.2692 105.607 23.7804 106.035C23.305 106.47 22.8109 106.843 22.2981 107.155C22.1941 107.22 22.1412 107.287 22.1393 107.354ZM17.8131 110.057C18.0442 110.077 18.27 110.042 18.4904 109.953C18.7459 109.831 18.9423 109.626 19.0798 109.338C19.2307 109.057 19.3203 108.777 19.3484 108.5C19.3541 108.296 19.3088 108.091 19.2123 107.885C19.1231 107.665 19.002 107.488 18.8491 107.355C18.6299 107.152 18.3861 106.979 18.1176 106.835C17.8563 106.679 17.6053 106.519 17.3647 106.356C17.2032 106.528 17.034 106.73 16.8572 106.963C16.6804 107.196 16.5135 107.443 16.3563 107.703C16.2198 107.958 16.107 108.216 16.0179 108.479C15.9289 108.741 15.8949 108.981 15.9161 109.199L15.9456 109.241C16.1335 109.341 16.3246 109.452 16.5187 109.573C16.7335 109.687 16.9452 109.792 17.1537 109.886C17.3829 109.974 17.6027 110.031 17.8131 110.057ZM20.8513 104.445C21.0967 104.438 21.327 104.363 21.5422 104.22C21.7224 104.109 21.9035 103.965 22.0856 103.787C22.2677 103.608 22.3625 103.383 22.3701 103.112C22.3777 102.84 22.323 102.604 22.2059 102.404C22.1095 102.198 21.9683 102.01 21.7822 101.842C21.5425 101.645 21.2682 101.464 20.9595 101.3C20.6713 101.129 20.3978 101.043 20.139 101.043C20.0006 101.365 19.786 101.732 19.4951 102.146C19.2177 102.566 19.0137 103.042 18.883 103.575C19.07 103.71 19.274 103.844 19.495 103.98C19.7161 104.115 19.9411 104.226 20.1703 104.314C20.3995 104.402 20.6264 104.446 20.8513 104.445Z" fill="#01A8CC"/>
<path d="M31.9553 117.167C31.8992 117.308 31.8559 117.438 31.8253 117.557C31.6519 118.076 31.512 118.47 31.4056 118.738C31.3047 118.992 31.2079 119.175 31.115 119.285C31.0418 119.387 30.96 119.428 30.8694 119.408C30.7845 119.375 30.6641 119.327 30.5084 119.266C30.3583 119.19 30.153 119.109 29.8925 119.023C29.6462 118.942 29.2229 118.792 28.6227 118.571C28.0366 118.356 27.2268 118.045 26.1932 117.637C25.1738 117.235 23.8131 116.681 22.1112 115.977L22.2624 115.596C22.725 114.554 23.1386 113.615 23.503 112.779C23.873 111.929 24.2037 111.137 24.495 110.403C24.8061 109.66 25.0989 108.943 25.3734 108.251C25.6479 107.559 25.9209 106.85 26.1924 106.125C26.464 105.399 26.7523 104.631 27.0575 103.821C27.3682 102.996 27.7126 102.087 28.0906 101.093C28.2546 101.092 28.4908 101.137 28.7994 101.226C29.1135 101.301 29.4405 101.405 29.7803 101.539C30.1201 101.673 30.4444 101.826 30.7532 101.997C31.0621 102.167 31.2988 102.334 31.4634 102.497C31.0709 103.404 30.6814 104.344 30.2949 105.318C29.9281 106.284 29.5585 107.257 29.1862 108.237C28.8138 109.216 28.4343 110.193 28.0478 111.168C27.681 112.133 27.3113 113.065 26.9386 113.963L26.9302 113.984C27.0405 113.995 27.2274 114.061 27.4908 114.181C27.7739 114.293 28.0968 114.428 28.4593 114.588C28.8218 114.747 29.2028 114.922 29.6022 115.112C30.0213 115.294 30.4121 115.464 30.7747 115.624C31.1513 115.789 31.4785 115.934 31.756 116.06C32.0533 116.177 32.2614 116.251 32.3803 116.282C32.3187 116.437 32.25 116.589 32.1742 116.739C32.104 116.875 32.031 117.017 31.9553 117.167Z" fill="#01A8CC"/>
<path d="M45.9302 107.551C46.2021 107.654 46.4127 107.78 46.5621 107.929C46.1522 109.832 45.6775 111.74 45.1381 113.656C44.6026 115.556 43.9807 117.426 43.2725 119.265C42.8978 120.203 42.3118 120.928 41.5145 121.44C40.7172 121.952 39.775 122.12 38.6878 121.943C38.054 121.839 37.4215 121.641 36.7902 121.349C36.155 121.071 35.6021 120.721 35.1314 120.299C34.6793 119.865 34.3316 119.365 34.0881 118.799C33.8633 118.221 33.8257 117.591 33.9753 116.908C34.4892 114.97 35.029 113.024 35.5948 111.068C36.1606 109.113 36.6857 107.162 37.1701 105.217L37.1538 105.189L37.1759 105.195C37.3967 105.253 37.6415 105.31 37.9104 105.365C38.194 105.424 38.4756 105.491 38.7553 105.564C39.035 105.638 39.3034 105.725 39.5606 105.824C39.8217 105.908 40.0548 106.009 40.2601 106.126L40.2542 106.148C39.1503 109.658 38.2608 113.279 37.5859 117.012C37.5956 117.391 37.7114 117.697 37.9336 117.928C38.1704 118.163 38.438 118.312 38.7363 118.375C39.0346 118.438 39.3342 118.407 39.6351 118.282C39.9359 118.158 40.1679 117.936 40.331 117.618C40.8718 115.876 41.3835 114.095 41.8662 112.274C42.3636 110.458 42.8602 108.704 43.3559 107.013C43.5512 107.049 43.7999 107.091 44.1021 107.139C44.4229 107.177 44.7398 107.229 45.0528 107.296C45.3658 107.363 45.6583 107.448 45.9302 107.551Z" fill="#01A8CC"/>
<path d="M52.6447 121.056C53.6037 121.235 54.5981 121.38 55.6279 121.491L55.6216 121.536C55.585 122.022 55.5225 122.527 55.4343 123.051C55.3482 123.56 55.2134 124.032 55.0301 124.467C53.4938 124.239 51.9221 124.045 50.315 123.884C48.7251 123.711 47.207 123.463 45.7607 123.14C45.9425 121.832 46.1071 120.536 46.2545 119.254C46.404 117.956 46.56 116.667 46.7225 115.387C46.8851 114.106 47.0626 112.828 47.2553 111.551C47.448 110.275 47.6719 108.995 47.9269 107.712C48.5193 107.764 49.1559 107.828 49.8367 107.907C50.5347 107.973 51.2316 108.046 51.9275 108.127C52.6234 108.208 53.2966 108.285 53.9472 108.36C54.5979 108.435 55.172 108.506 55.6698 108.575C56.1675 108.644 56.5661 108.706 56.8657 108.763C57.1652 108.82 57.314 108.856 57.3119 108.871C57.3142 109.408 57.2551 109.944 57.1346 110.479C57.0292 111.016 56.94 111.548 56.8669 112.074L56.8637 112.097C56.3665 112.135 55.8669 112.135 55.365 112.097C54.8803 112.045 54.3891 111.985 53.8913 111.916C53.3957 111.832 52.899 111.756 52.4013 111.687C51.9036 111.619 51.4028 111.572 50.8988 111.549L50.8309 111.539L50.8051 111.559C50.7596 111.997 50.6743 112.445 50.5492 112.903C50.4413 113.348 50.4119 113.781 50.4611 114.202L50.4806 114.227C50.9289 114.32 51.3868 114.398 51.8544 114.463C52.3219 114.528 52.7884 114.6 53.2539 114.679L53.2507 114.702C53.2551 115.224 53.2067 115.738 53.1055 116.245C53.0043 116.753 52.9226 117.285 52.8604 117.844C52.6258 117.873 52.3642 117.875 52.0755 117.851C51.7889 117.811 51.5099 117.772 51.2384 117.735C50.982 117.699 50.7472 117.675 50.534 117.661C50.3207 117.646 50.1722 117.664 50.0885 117.714C49.9525 118.14 49.8544 118.624 49.7943 119.168C49.7492 119.714 49.7167 120.169 49.6967 120.534L49.7162 120.56C50.7117 120.697 51.6878 120.863 52.6447 121.056Z" fill="#01A8CC"/>
<path d="M72.6581 113.057C72.7727 114.466 72.8197 115.9 72.799 117.36L73.0069 124.623C72.7776 124.601 72.5259 124.595 72.252 124.605C71.9782 124.616 71.7043 124.626 71.4304 124.637C71.1565 124.647 70.8906 124.665 70.6325 124.69C70.389 124.699 70.176 124.707 69.9934 124.714C69.9382 124.063 69.8885 123.358 69.8444 122.6C69.8155 121.841 69.7784 121.068 69.7332 120.279C69.7032 119.49 69.6509 118.717 69.5764 117.96C69.5171 117.203 69.4372 116.507 69.3369 115.873C69.2367 116.043 69.1251 116.314 69.002 116.683C68.8784 117.037 68.7553 117.406 68.6328 117.791C68.5103 118.175 68.3937 118.514 68.2829 118.807C68.1722 119.1 68.0864 119.248 68.0255 119.25C67.9495 119.253 67.8553 119.18 67.743 119.033C67.6453 118.869 67.5386 118.668 67.4229 118.429C67.3224 118.19 67.2136 117.936 67.0967 117.667C66.9798 117.398 66.879 117.151 66.7943 116.926C66.7095 116.701 66.6338 116.514 66.5672 116.365C66.5158 116.215 66.4901 116.14 66.4901 116.14C66.4226 117.571 66.4319 119.014 66.5177 120.469C66.6188 121.924 66.7419 123.355 66.8869 124.763C66.4029 124.857 65.8715 124.908 65.2927 124.915C64.714 124.921 64.1811 124.934 63.6943 124.952C63.6638 124.953 63.6401 124.931 63.6232 124.887C63.6057 124.826 63.585 124.683 63.5611 124.456C63.5372 124.229 63.509 123.888 63.4764 123.433C63.4585 122.963 63.4352 122.349 63.4063 121.59C63.3774 120.831 63.3416 119.891 63.2988 118.768C63.2713 117.644 63.2281 116.309 63.1692 114.761C63.1255 113.213 63.072 111.407 63.0086 109.343C63.2041 109.275 63.4309 109.228 63.689 109.203C63.9471 109.178 64.2134 109.168 64.4878 109.173C64.7617 109.163 65.0359 109.16 65.3103 109.165C65.5842 109.154 65.8502 109.137 66.1083 109.112L66.1311 109.111C66.2738 109.257 66.4197 109.487 66.5688 109.801C66.7172 110.099 66.859 110.42 66.994 110.765C67.129 111.109 67.2558 111.438 67.3745 111.753C67.5083 112.067 67.6396 112.313 67.7682 112.49C67.8156 112.534 67.8621 112.555 67.9078 112.553C67.954 112.567 68.017 112.42 68.0967 112.113C68.1917 111.806 68.2849 111.453 68.3764 111.054C68.4825 110.64 68.5965 110.233 68.7185 109.833C68.8556 109.433 68.9892 109.139 69.1192 108.952C69.2263 108.963 69.4164 108.956 69.6897 108.93C69.9783 108.904 70.282 108.878 70.6009 108.85C70.9351 108.822 71.2696 108.802 71.6043 108.79C71.9537 108.761 72.2501 108.742 72.4935 108.733C72.4881 110.192 72.543 111.633 72.6581 113.057Z" fill="#01A8CC"/>
<path d="M81.9333 114.235C82.1062 114.654 82.2425 114.986 82.3423 115.232L85.2576 122.848L85.2611 122.871C84.8236 123.03 84.3317 123.137 83.7854 123.191C83.2413 123.259 82.7204 123.278 82.2226 123.247L82.2 123.251C82.0725 123.025 81.938 122.754 81.7965 122.437C81.67 122.119 81.5348 121.794 81.391 121.463C81.2622 121.129 81.1282 120.812 80.989 120.511C80.8499 120.21 80.7101 119.955 80.5699 119.746C80.3696 119.746 80.2168 119.754 80.1115 119.77C80.0061 119.787 79.9083 119.802 79.818 119.816C79.7428 119.827 79.6537 119.849 79.5507 119.88C79.4604 119.894 79.3325 119.914 79.167 119.939C79.0989 120.196 79.0529 120.495 79.0289 120.836C79.0176 121.161 79.0022 121.509 78.9829 121.881C78.9763 122.235 78.961 122.583 78.9369 122.925C78.9129 123.266 78.853 123.575 78.7572 123.851C78.7421 123.854 78.7282 123.863 78.7155 123.881C78.7155 123.881 78.708 123.882 78.6929 123.884C78.5772 123.933 78.2763 123.979 77.7901 124.024C77.3039 124.068 76.5504 124.176 75.5295 124.349C75.5145 124.352 75.4983 124.347 75.4809 124.334C75.4947 124.224 75.5019 123.923 75.5027 123.432C75.5034 122.94 75.5121 122.301 75.5288 121.515C75.5454 120.729 75.5672 119.826 75.5941 118.808C75.6337 117.773 75.6941 116.672 75.7753 115.508C75.8564 114.343 75.9532 113.129 76.0655 111.868C76.1778 110.606 76.3214 109.347 76.4963 108.091C76.5993 108.059 76.711 108.034 76.8313 108.016C76.9517 107.997 77.1097 107.973 77.3053 107.943C77.501 107.912 77.7492 107.874 78.0502 107.828C78.3638 107.764 78.7655 107.671 79.255 107.55C79.3304 107.738 79.4447 108.027 79.5979 108.419C79.7638 108.792 79.9389 109.226 80.1234 109.72C80.3207 110.197 80.5237 110.711 80.7326 111.263C80.9565 111.812 81.1694 112.34 81.3712 112.846C81.5731 113.353 81.7605 113.816 81.9333 114.235ZM79.4129 117.205C79.6965 117.146 79.9812 117.094 80.2671 117.05C79.9164 115.783 79.6249 114.798 79.3928 114.097C79.1757 113.393 79.0022 112.92 78.8723 112.679C78.7575 112.435 78.6666 112.396 78.5996 112.56C78.5453 112.706 78.5143 113.003 78.5066 113.45C78.514 113.894 78.5237 114.454 78.5359 115.128C78.5631 115.8 78.5834 116.526 78.5968 117.308C78.855 117.283 79.127 117.249 79.4129 117.205Z" fill="#01A8CC"/>
<path d="M87.8661 109.21C87.6726 109.31 87.5331 109.434 87.4478 109.584C87.4265 109.621 87.4112 109.68 87.402 109.761C87.4034 109.824 87.4008 109.872 87.3941 109.905C87.3768 109.957 87.4178 110.222 87.5172 110.698C87.6312 111.171 87.7694 111.731 87.9317 112.38C88.094 113.028 88.2717 113.704 88.4648 114.407C88.6538 115.095 88.8408 115.689 89.0256 116.19C89.1863 116.603 89.4111 116.99 89.7 117.352C89.9995 117.695 90.3783 117.867 90.8363 117.868C91.1674 117.809 91.4564 117.683 91.7033 117.489C91.9608 117.277 92.1227 117.005 92.1891 116.672C92.2582 116.291 92.2277 115.921 92.0978 115.563C91.9785 115.186 91.9053 114.805 91.8782 114.419C92.0918 114.392 92.3214 114.337 92.5671 114.254C92.8274 114.167 93.0897 114.088 93.354 114.016C93.6184 113.944 93.8774 113.881 94.1311 113.827C94.3994 113.77 94.6444 113.742 94.8661 113.744C95.325 114.438 95.6002 115.181 95.6919 115.975C95.7796 116.754 95.7076 117.498 95.476 118.206C95.2444 118.915 94.8599 119.555 94.3223 120.127C93.7954 120.68 93.1301 121.075 92.3265 121.31C91.8179 121.528 91.2745 121.676 90.6964 121.755C90.1223 121.849 89.5627 121.852 89.0177 121.765C88.4688 121.663 87.9691 121.453 87.5187 121.135C87.083 120.814 86.7513 120.353 86.5236 119.754C86.3494 119.235 86.1765 118.692 86.005 118.125C85.8334 117.558 85.6438 116.925 85.436 116.226C85.2389 115.508 85.0176 114.703 84.7723 113.809C84.5376 112.897 84.2647 111.846 83.9535 110.656C83.8558 110.415 83.7947 110.164 83.7704 109.903C83.7567 109.624 83.7638 109.362 83.7916 109.118C83.8191 108.701 83.8841 108.306 83.9866 107.931C84.1037 107.553 84.2675 107.201 84.4782 106.876C84.6075 106.715 84.7576 106.572 84.9284 106.446C85.0952 106.306 85.2733 106.179 85.4628 106.064C86.078 105.66 86.7221 105.39 87.395 105.253C88.0679 105.116 88.7269 105.102 89.3721 105.209C90.0279 105.297 90.649 105.49 91.2356 105.786C91.8222 106.082 92.3315 106.471 92.7633 106.951C93.1912 107.417 93.523 107.964 93.7587 108.592C93.9944 109.22 94.0873 109.903 94.0374 110.641C93.5262 110.907 93.0023 111.097 92.4656 111.212C91.9395 111.309 91.3834 111.382 90.7972 111.432C90.6767 111.166 90.5608 110.859 90.4496 110.511C90.3531 110.16 90.2279 109.848 90.074 109.575C89.9161 109.287 89.7082 109.076 89.4503 108.942C89.2071 108.804 88.8746 108.8 88.4527 108.931C88.2698 109.013 88.0743 109.106 87.8661 109.21Z" fill="#01A8CC"/>
<path d="M102.516 107.903C102.779 108.272 102.987 108.565 103.14 108.782L107.704 115.546L107.712 115.568C107.322 115.822 106.867 116.036 106.347 116.211C105.833 116.401 105.33 116.536 104.838 116.618L104.816 116.627C104.641 116.435 104.449 116.201 104.239 115.925C104.044 115.643 103.839 115.357 103.624 115.067C103.423 114.771 103.22 114.492 103.017 114.23C102.813 113.968 102.619 113.751 102.435 113.579C102.24 113.624 102.093 113.667 101.994 113.706C101.895 113.746 101.803 113.782 101.718 113.816C101.648 113.845 101.566 113.886 101.473 113.939C101.388 113.973 101.268 114.021 101.112 114.083C101.104 114.348 101.127 114.65 101.181 114.988C101.243 115.307 101.307 115.649 101.372 116.016C101.446 116.363 101.51 116.705 101.564 117.043C101.618 117.382 101.629 117.696 101.598 117.987C101.584 117.992 101.573 118.005 101.564 118.025C101.564 118.025 101.557 118.027 101.543 118.033C101.441 118.106 101.159 118.219 100.695 118.372C100.232 118.525 99.522 118.8 98.5666 119.198C98.5525 119.204 98.5355 119.202 98.5157 119.194C98.5043 119.084 98.4433 118.789 98.3327 118.31C98.2221 117.831 98.086 117.206 97.9243 116.437C97.7626 115.667 97.5797 114.783 97.3754 113.785C97.1797 112.768 96.9895 111.682 96.8049 110.529C96.6204 109.376 96.44 108.172 96.2639 106.918C96.0877 105.663 95.9427 104.404 95.8287 103.141C95.922 103.088 96.0252 103.038 96.1382 102.993C96.2513 102.948 96.3997 102.888 96.5834 102.815C96.7672 102.742 97.0004 102.648 97.2831 102.535C97.5742 102.403 97.9445 102.222 98.3939 101.993C98.5099 102.16 98.6868 102.416 98.9245 102.763C99.1708 103.09 99.4396 103.473 99.7311 103.913C100.031 104.332 100.345 104.788 100.674 105.278C101.016 105.763 101.343 106.229 101.654 106.677C101.966 107.125 102.253 107.534 102.516 107.903ZM100.733 111.364C100.996 111.243 101.261 111.128 101.53 111.021C100.901 109.865 100.395 108.972 100.01 108.34C99.639 107.704 99.363 107.282 99.1819 107.076C99.015 106.865 98.9174 106.847 98.8892 107.022C98.8695 107.177 98.9065 107.473 99.0001 107.91C99.1078 108.341 99.2439 108.884 99.4084 109.538C99.5869 110.186 99.7712 110.89 99.9611 111.648C100.207 111.566 100.464 111.471 100.733 111.364Z" fill="#01A8CC"/>
<path d="M108.875 96.9537C109.331 96.7097 109.791 96.4893 110.255 96.2926L110.286 96.3019C111.33 98.7243 112.344 101.154 113.327 103.592C114.323 106.023 115.354 108.452 116.418 110.881C116.339 110.958 116.238 111.029 116.118 111.094C116.01 111.151 115.89 111.216 115.755 111.287L114.789 111.804C114.582 111.708 114.353 111.538 114.1 111.294C113.854 111.029 113.594 110.755 113.32 110.471C113.039 110.173 112.765 109.889 112.499 109.618C112.232 109.347 111.988 109.15 111.767 109.027L111.746 109.038C111.69 109.223 111.698 109.495 111.77 109.853C111.848 110.19 111.94 110.554 112.047 110.945C112.146 111.323 112.242 111.694 112.334 112.058C112.426 112.422 112.466 112.72 112.452 112.951C112.292 113.071 112.145 113.184 112.012 113.29C111.871 113.382 111.707 113.479 111.52 113.579C111.305 113.694 111.039 113.81 110.722 113.928L110.702 113.939C109.149 111.823 107.596 109.69 106.042 107.54C104.489 105.391 103.069 103.169 101.784 100.876L101.773 100.856C101.96 100.722 102.157 100.59 102.364 100.462C102.578 100.313 102.799 100.178 103.027 100.056C103.295 99.9122 103.567 99.7754 103.843 99.6452C104.118 99.5151 104.381 99.3921 104.629 99.2762C105 99.8363 105.383 100.484 105.779 101.22C106.174 101.956 106.574 102.699 106.977 103.448C107.38 104.197 107.796 104.922 108.225 105.623C108.654 106.324 109.097 106.923 109.554 107.42C109.404 106.724 109.242 106.053 109.067 105.406C108.898 104.738 108.725 104.064 108.549 103.383C108.548 103.349 108.544 103.325 108.536 103.312C108.529 103.298 108.529 103.281 108.535 103.261C108.61 103.272 108.788 103.427 109.069 103.724C109.357 104.001 109.663 104.329 109.987 104.707C110.324 105.078 110.652 105.445 110.969 105.81C111.299 106.167 111.559 106.425 111.747 106.582C111.491 105.978 111.179 105.301 110.81 104.551C110.434 103.787 110.044 103.014 109.64 102.23C109.249 101.44 108.862 100.673 108.48 99.9302C108.104 99.1666 107.784 98.476 107.521 97.8586L107.51 97.8385C107.71 97.663 107.926 97.5039 108.161 97.3614C108.395 97.2188 108.633 97.0829 108.875 96.9537Z" fill="#01A8CC"/>
<path d="M53.6948 33.3986C52.8516 32.0488 52.5047 31.1086 52.3355 29.5582C52.3048 29.3595 52.2821 29.1569 52.2673 28.9503C50.6764 29.7446 49.3679 30.8716 48.3417 32.331C51.0159 26.8885 54.1683 21.669 57.7987 16.6728C58.8567 15.4089 59.9571 14.1634 61.0998 12.9361C62.9778 10.6141 64.2862 8.0045 65.0253 5.10701C65.3631 3.46165 64.7088 2.57197 63.0625 2.43799C62.1704 2.51948 61.308 2.72713 60.4752 3.06076C57.0493 4.67552 53.8375 6.60309 50.8398 8.84364C45.8292 12.6523 41.7848 17.2786 38.7063 22.7226C38.3983 23.1571 38.1307 23.6316 37.9034 24.146C37.7867 24.3588 37.6975 24.3588 37.6357 24.146C37.9849 23.3909 38.2824 22.6199 38.5279 21.8329C40.2847 18.0315 42.0989 14.2356 43.9701 10.4451C44.233 9.6342 44.3816 8.80396 44.4162 7.95396C44.4917 6.28262 43.7185 5.7191 42.0966 6.26358C40.9664 6.82675 39.8958 7.47906 38.8848 8.22087C36.2903 10.3038 33.9707 12.6466 31.9258 15.2493C30.0821 17.6801 28.6546 20.3491 27.6434 23.2564C26.2466 26.8704 25.3249 30.607 24.8777 34.4662C24.8979 32.8027 24.9575 31.1421 25.0561 29.4841C24.9876 28.7451 24.8092 28.0334 24.5208 27.3489C23.7466 25.6377 22.5868 25.3113 21.0414 26.3702C20.1128 27.3636 19.3395 28.4609 18.7217 29.662C16.3404 34.2367 14.9723 39.1002 14.6178 44.2527C14.3442 49.9576 14.8795 55.5921 16.2236 61.1565C16.0707 60.0889 15.956 58.3985 15.956 58.3985C15.6823 53.9987 16.069 50.5882 16.5805 46.2099C16.9411 44.3886 17.5062 42.6093 18.2757 40.8719C18.8231 39.8393 19.626 39.513 20.6845 39.8933C21.1461 40.4116 21.5328 40.9751 21.8443 41.5836C23.2093 45.5057 24.0719 49.5389 24.4316 53.6832L24.7885 49.4128C24.8456 48.017 24.9646 46.6528 25.1454 45.3203C25.3691 43.0815 25.6367 40.887 26.1267 38.7367C26.1267 37.3132 28.5356 29.2172 30.1415 25.3916C30.8424 23.7889 31.7942 22.3357 32.9964 21.0322C33.9611 20.6187 34.5856 20.9448 34.87 22.0108C35.1385 23.5434 35.1981 25.0855 35.0484 26.6371C34.6141 30.8373 33.93 34.989 32.9964 39.0926C33.2611 38.5707 33.4991 38.0369 33.7102 37.4911C35.3041 32.3558 37.8022 27.7295 41.2044 23.6122C42.1199 22.7884 43.0121 21.9284 43.8809 21.0322C45.3119 19.8453 46.9178 18.9557 48.6986 18.3632C50.848 17.889 52.0376 18.7194 52.2673 20.8542C52.147 21.9265 51.8794 22.9644 51.4643 23.9681C50.0163 26.678 48.6187 29.4065 47.2711 32.1531C46.7854 33.0727 46.369 34.0216 46.0221 35.0001C44.6963 38.0774 43.8042 41.2803 43.3456 44.6085C43.3222 44.74 43.352 44.8587 43.4348 44.9644C43.8634 43.6245 44.3987 42.3198 45.0407 41.0498C46.9651 37.3789 49.8499 34.8285 53.6948 33.3986Z" fill="url(#paint2_linear_16_1069)"/>
<path d="M94.3213 27.4171C91.5218 25.8254 88.6026 25.5882 85.5618 26.7059L84.8315 28.0606C86.5854 29.8592 88.0585 32.0296 88.6008 34.5295C89.5401 38.0182 89.2358 41.8567 88.6008 45.3759C87.7602 48.4198 86.5879 51.1668 85.0255 53.9108C78.7079 63.6561 53.8223 67.993 50.4346 53.5552C49.8598 50.6139 50.25 44.5013 50.5 44.5C48.6552 46.1494 48.1623 48.449 47.6638 50.7102C46.4506 56.2134 46.8653 61.7952 49.2727 66.8909C52.5798 74.6257 73.4765 83.5277 77.6962 71.6918C81.3608 65.3795 85.5474 58.7916 90.5672 53.9108C91.9491 52.6313 94.1449 51.6546 95.4832 50.5324C98.4632 46.613 99.7263 40.1052 99.1479 35.2408C98.857 32.2369 96.8324 29.0199 94.3213 27.4171Z" fill="url(#paint3_linear_16_1069)"/>
<path d="M89.2031 37.1353C89.0247 35.3559 88.9033 35.3433 88.6678 34.4662C88.1265 31.9646 86.5821 29.8604 84.8315 28.0606C82.729 31.2209 81.3065 32.7856 78.3186 35.178C79.3549 39.1627 78.0018 43.3308 74.5715 45.6761C75.0158 47.7265 75.4637 49.6797 75.1068 51.9039C73.9863 57.1835 70.9001 60.6769 65.6498 62.313C64.2224 62.7579 62.7057 62.5799 61.189 62.5799C64.5792 64.0924 71.4489 63.7157 74.9284 62.313C79.1216 60.6227 82.5993 57.7476 85.0991 53.8611C86.6075 51.4488 87.9088 48.4077 88.6678 45.3203C89.4814 42.505 89.3815 38.9146 89.2031 37.1353Z" fill="url(#paint4_linear_16_1069)"/>
<path d="M85.546 26.7258C85.546 26.7258 91.4058 25.8447 94.2001 27.4376C95.5312 28.2894 96.7196 29.3272 97.4119 30.7294C98.8654 30.7294 100.317 30.8557 101.784 30.6407C102.322 30.6044 102.858 30.5452 103.389 30.4628C104.34 30.1663 105.293 29.8697 106.244 29.5731C106.542 29.4544 106.839 29.3359 107.137 29.2172C107.295 29.1087 107.474 29.0494 107.672 29.0393C107.813 28.879 107.991 28.7603 108.207 28.6834C108.737 28.3904 109.214 28.0345 109.635 27.6158C110.377 26.9929 110.912 26.2217 111.241 25.3027C112.886 22.845 110.639 22.2084 108.564 22.6337L106.958 22.8116C105.389 22.9499 103.845 23.0328 102.319 22.9002C101.962 22.8113 101.835 22.8098 101.605 22.7226C102.394 22.537 103.108 22.2109 103.746 21.744C104.282 21.3289 104.758 20.8543 105.174 20.3205C105.73 19.6372 106.027 18.8365 106.066 17.9184C106.025 15.1326 103.54 16.8059 102.14 17.2956C101.556 17.4913 100.964 17.6711 100.356 17.8294C99.5531 18.0073 98.8394 18.1439 98.0364 18.1853C96.7446 18.2518 95.4955 18.0739 94.2893 17.6515C93.0367 16.9348 91.7877 16.223 90.5422 15.5163C87.7586 13.8789 84.7859 12.6928 81.6205 11.9576C79.5489 11.3364 77.4077 10.9805 75.1969 10.89C73.7195 10.8798 72.2923 11.1172 70.9145 11.6017C67.8973 12.6531 65.7263 14.7583 64.5801 17.7401C65.383 17.7401 66.0788 16.7106 66.6321 16.228C68.1796 14.8632 69.964 13.9736 71.9851 13.559C75.8446 13.4286 79.3544 14.4664 82.5127 16.6728C85.7459 19.2803 86.6166 22.4554 85.546 26.7258Z" fill="url(#paint5_linear_16_1069)"/>
<path d="M112.043 38.7369C110.932 35.3346 109.445 32.1318 107.582 29.1284C104.12 29.3057 101.149 31.0293 97.4117 30.6409C99.0799 33.8175 99.4976 37.4334 99.0176 41.05L98.4823 42.8294C98.1362 43.923 97.7204 44.9906 97.2333 46.0322C96.3245 47.9252 94.955 49.5084 94.0215 51.3703C96.2269 49.7879 98.6643 48.839 101.337 48.5233C103.591 48.418 105.732 48.8331 107.761 49.7689C108.808 50.2208 109.7 50.8733 110.437 51.7261L111.508 53.0606C112.554 54.8141 112.972 55.7664 113.471 57.42L114.006 60.8008C114.898 57.6869 114.613 51.5433 114.363 48.7012C113.983 45.2854 113.208 41.9641 112.043 38.7369Z" fill="url(#paint6_linear_16_1069)"/>
<path d="M94.0215 51.3703C96.2269 49.7879 98.6643 48.839 101.337 48.5233C103.591 48.418 105.732 48.8331 107.761 49.7689C108.808 50.2208 109.7 50.8733 110.437 51.7261C110.819 52.1375 111.176 52.5824 111.508 53.0606C112.608 54.8549 113.029 55.8079 113.471 57.4201C113.729 57.9021 114.091 59.8463 114.006 60.8008C113.931 61.925 113.694 62.9926 113.292 64.0036C112.518 67.091 111.329 69.9972 109.724 72.7224C107.145 77.6676 103.814 82.0567 99.7313 85.8896C100.665 83.2028 99.7134 81.7201 96.8764 81.4412C94.2427 81.9615 91.9516 83.1476 90.0066 84.9999C89.8871 84.8813 89.8871 84.7628 90.0066 84.6441C90.3707 84.3113 90.6972 83.9555 90.988 83.5765L93.1292 80.9074C93.7948 80.0059 94.389 79.0567 94.9136 78.0605C95.8896 76.6231 96.3642 75.0217 96.341 73.2562C96.0627 72.5047 95.5881 71.9116 94.9136 71.4769C94.2337 71.1548 93.52 71.0659 92.7724 71.21C88.9521 72.6395 85.6814 74.8637 82.9585 77.8826C82.2555 78.4938 81.5721 79.1462 80.9065 79.8398C80.787 79.7212 80.787 79.6026 80.9065 79.484C81.3883 79.0327 81.8344 78.5582 82.2448 78.0605C83.7044 76.2461 84.9534 74.2888 85.9919 72.1886C86.4433 71.0808 86.4433 69.9835 85.9919 68.8968C85.5422 68.6582 85.0658 68.51 84.5644 68.452C83.5527 68.383 82.6016 68.5906 81.7095 69.0748C80.5148 69.8006 78.5165 71.6913 77.3379 72.5445C77.7882 71.1969 78.5753 69.9654 79.3898 68.8079C80.3855 66.9294 81.515 65.1501 82.7801 63.4698C83.74 61.4051 87.8043 56.5083 90.6312 53.8614C91.6661 52.9007 92.7956 52.0703 94.0215 51.3703Z" fill="url(#paint7_linear_16_1069)"/>
<path d="M85.9907 68.8967C86.4421 69.9834 86.4421 71.0807 85.9907 72.1885C84.9522 74.2887 83.7032 76.246 82.2436 78.0604C81.8332 78.558 81.3871 79.0326 80.9053 79.4838C80.7858 79.6025 80.7858 79.721 80.9053 79.8397C81.5709 79.1461 82.2543 78.4936 82.9573 77.8824C85.6802 74.8636 88.9509 72.6394 92.7712 71.2099C93.5188 71.0657 94.2325 71.1547 94.9124 71.4768C95.5868 71.9115 96.0615 72.5045 96.3398 73.2561C96.363 75.0216 95.8884 76.623 94.9124 78.0604C94.3878 79.0566 93.7936 80.0057 93.128 80.9073L90.9868 83.5763C90.696 83.9553 90.3694 84.3112 90.0054 84.6439C89.8859 84.7626 89.8859 84.8811 90.0054 84.9998C91.9504 83.1475 94.2415 81.9614 96.8751 81.4411C99.7122 81.7199 100.663 83.2027 99.7301 85.8895C99.2779 86.6012 97.7992 88.2419 97.2321 88.7364C91.9611 93.2629 85.8944 96.2878 79.0318 97.8111C80.4093 97.2133 81.7779 96.5608 83.1358 95.8538C84.0583 95.3649 84.9505 94.8311 85.8123 94.2524C87.9928 93.087 89.5398 91.3669 90.4516 89.0923C90.4962 88.6783 90.3784 88.3224 90.0947 88.0247C89.5112 87.8316 88.9153 87.8019 88.3104 87.9357C86.9382 88.7126 85.5714 89.4836 84.2064 90.2489C81.9474 91.1083 79.6867 91.909 77.4259 92.651C76.4094 92.9846 75.4221 93.1432 74.3925 93.4517C74.3033 93.422 74.1249 93.3035 74.0357 93.2738C74.5299 93.0811 75.0046 92.8734 75.4631 92.651C76.8299 91.9697 78.1396 91.1985 79.3887 90.3379C81.0231 89.3421 82.5 88 83.6711 86.6012C85.0118 84.9998 85.6252 84.3573 86.3476 83.0425C86.8029 80.585 86.2514 80.2873 84.028 80.4625C83.0252 80.6771 82.0741 81.0329 81.173 81.5301C79.4975 82.7205 77.7721 83.8178 75.9984 84.8219C73.8572 85.7907 71.6568 86.6212 69.3964 87.313C69.183 87.2514 69.183 87.1624 69.3964 87.0461C70.343 86.6927 71.2351 86.2478 72.0729 85.7116C73.445 84.8496 74.753 83.9007 75.9984 82.8646C77.5865 81.5187 78.8355 79.9173 79.7455 78.0604C80.9996 75.7702 80.7168 74.6057 79.2102 73.1672C78.107 72.6822 77.167 72.9609 75.2847 74.5017C77.2475 72.6333 79.3178 70.2752 81.7083 69.0747C82.6004 68.5905 83.5515 68.3828 84.5632 68.4519C85.0646 68.5099 85.541 68.6581 85.9907 68.8967Z" fill="url(#paint8_linear_16_1069)"/>
<path d="M86.3481 83.0425C85.77 84.0946 85.1151 85.103 84.3853 86.0674C83 88 81.3258 89.158 79.3892 90.3378C78.1401 91.1985 76.8304 91.9697 75.4636 92.651C75.005 92.8734 74.5304 93.081 74.0361 93.2738L74.3038 93.3627C75.3709 93.173 76.4083 92.925 77.4264 92.651C79.6871 91.909 81.9479 91.1083 84.2069 90.2489C85.5719 89.4836 86.9387 88.7126 88.3109 87.9357C88.9157 87.8019 89.5117 87.8316 90.0952 88.0247C90.3789 88.3224 90.4967 88.6782 90.4521 89.0923C89.5403 91.3668 87.9932 93.0869 85.8128 94.2524C84.951 94.831 84.0588 95.3648 83.1363 95.8538C81.7784 96.5607 80.4098 97.2132 79.0323 97.8111C64.7728 101.09 51.0928 99.4589 37.9925 92.9179C34.1333 90.9031 30.8886 88.2359 27.8218 85.1777C27.0465 84.4042 26.3328 83.5738 25.6806 82.6866C23.7188 79.7757 21.4108 75.3399 19.9707 72.1885C22.0095 74.0312 25.1025 77.0561 27.4649 78.7721C29.8081 80.4548 32.2468 81.9968 34.7807 83.3984C36.4293 84.2205 38.3553 84.9548 40.1337 85.4446C44.8112 86.4225 49.5099 86.5115 54.23 85.7115C56.5527 85.2065 58.8723 84.6133 61.1889 83.9322C63.5219 83.1256 65.7822 82.1172 67.9694 80.9073C69.1046 80.163 70.1752 79.3326 71.1812 78.4162C71.7211 77.9367 72.2564 77.4621 72.7871 76.9927C73.6194 76.1627 74.392 75.2683 75.2852 74.5016C76.234 73.652 77.9021 72.4241 79.2107 73.1671C80.9999 74.5001 80.8178 76.4651 79.746 78.0603C78.836 79.9173 77.587 81.5187 75.9989 82.8646C74.7535 83.9007 73.4455 84.8496 72.0734 85.7115C71.2356 86.2478 70.3435 86.6927 69.3969 87.046C69.1835 87.1624 69.1835 87.2514 69.3969 87.3129C71.6573 86.6211 73.8577 85.7907 75.9989 84.8218C77.7726 83.8178 79.498 82.7204 81.1735 81.5301C82.0746 81.0329 83.0257 80.677 84.0285 80.4624C86.2767 80.005 87.0493 80.8649 86.3481 83.0425Z" fill="url(#paint9_linear_16_1069)"/>
<defs>
<linearGradient id="paint0_linear_16_1069" x1="34" y1="31.5" x2="50" y2="89.5" gradientUnits="userSpaceOnUse">
<stop stop-color="#00ABD0"/>
<stop offset="1" stop-color="#007BA1"/>
</linearGradient>
<linearGradient id="paint1_linear_16_1069" x1="63.9391" y1="11.1116" x2="44.7189" y2="115.986" gradientUnits="userSpaceOnUse">
<stop stop-color="#C2BDA2"/>
<stop offset="1" stop-color="#727262"/>
</linearGradient>
<linearGradient id="paint2_linear_16_1069" x1="12" y1="45.5" x2="68" y2="17" gradientUnits="userSpaceOnUse">
<stop stop-color="#003A67"/>
<stop offset="1" stop-color="#007DC1"/>
</linearGradient>
<linearGradient id="paint3_linear_16_1069" x1="120.266" y1="9.80455" x2="35.0765" y2="105.798" gradientUnits="userSpaceOnUse">
<stop stop-color="#F3DC04"/>
<stop offset="1" stop-color="#D59730"/>
</linearGradient>
<linearGradient id="paint4_linear_16_1069" x1="72.0792" y1="100.097" x2="84.6173" y2="22.37" gradientUnits="userSpaceOnUse">
<stop stop-color="#D49531"/>
<stop offset="1" stop-color="#E9B120"/>
</linearGradient>
<linearGradient id="paint5_linear_16_1069" x1="67.5" y1="24" x2="110.5" y2="25.5" gradientUnits="userSpaceOnUse">
<stop stop-color="#4E9031"/>
<stop offset="0.594421" stop-color="#6EBD44"/>
<stop offset="1" stop-color="#2EB19B"/>
</linearGradient>
<linearGradient id="paint6_linear_16_1069" x1="99" y1="29" x2="115" y2="58.5" gradientUnits="userSpaceOnUse">
<stop stop-color="#009EC3"/>
<stop offset="1" stop-color="#008CB1"/>
</linearGradient>
<linearGradient id="paint7_linear_16_1069" x1="89.5" y1="55.5" x2="114" y2="78.5" gradientUnits="userSpaceOnUse">
<stop stop-color="#00AACD"/>
<stop offset="1" stop-color="#006385"/>
</linearGradient>
<linearGradient id="paint8_linear_16_1069" x1="80.5" y1="77" x2="91.5" y2="98" gradientUnits="userSpaceOnUse">
<stop offset="0.0796358" stop-color="#01A6D3"/>
<stop offset="1" stop-color="#0771AE"/>
</linearGradient>
<linearGradient id="paint9_linear_16_1069" x1="60.5" y1="95.5" x2="62.5" y2="78" gradientUnits="userSpaceOnUse">
<stop stop-color="#003560"/>
<stop offset="1" stop-color="#0081BC"/>
</linearGradient>
</defs>
</svg>
