<svg width="18" height="40" viewBox="0 0 18 40" fill="none" xmlns="http://www.w3.org/2000/svg">
<path d="M9 6.3998V11.1998M9 23.1998C6.87827 23.1998 4.84344 22.357 3.34315 20.8567C1.84285 19.3564 1 17.3215 1 15.1998V8.7998C1 6.67807 1.84285 4.64324 3.34315 3.14295C4.84344 1.64266 6.87827 0.799805 9 0.799805C11.1217 0.799805 13.1566 1.64266 14.6569 3.14295C16.1571 4.64324 17 6.67807 17 8.7998V15.1998C17 16.2504 16.7931 17.2907 16.391 18.2613C15.989 19.2319 15.3997 20.1138 14.6569 20.8567C13.914 21.5995 13.0321 22.1888 12.0615 22.5908C11.0909 22.9929 10.0506 23.1998 9 23.1998Z" stroke="white" stroke-width="1.6" stroke-linecap="round"/>
<path d="M16 25L9 29L2 25" stroke="white" stroke-width="2" stroke-linecap="round" stroke-linejoin="round"/>
<path d="M16 30L9 34L2 30" stroke="#BBBBBB" stroke-width="2" stroke-linecap="round" stroke-linejoin="round"/>
<path d="M16 35L9 39L2 35" stroke="#999999" stroke-width="2" stroke-linecap="round" stroke-linejoin="round"/>
</svg>
